<svg viewBox="-242 -665 1005.1669011984554 751.2" width="1005.1669011984554" height="751.2" version="1.1" baseProfile="full" xmlns="http://www.w3.org/2000/svg" class="js-draw--autoresize"><style id="js-draw-style-sheet">path{stroke-linecap:round;stroke-linejoin:round;}text{white-space:pre;}</style><g class="js-draw-image-background js-draw-image-background-grid js-draw-image-background-grid-25"><path d="M763.1669011984554,86.2l0-751.2l-1005.1669011984554,0l0,751.2l1005.1669011984554,0" fill="#ffffff"></path><path d="M-242.35,-650l1005.8669011984555,0m-1005.8669011984555,25l1005.8669011984555,0m-1005.8669011984555,25l1005.8669011984555,0m-1005.8669011984555,25l1005.8669011984555,0m-1005.8669011984555,25l1005.8669011984555,0m-1005.8669011984555,25l1005.8669011984555,0m-1005.8669011984555,25l1005.8669011984555,0m-1005.8669011984555,25l1005.8669011984555,0m-1005.8669011984555,25l1005.8669011984555,0m-1005.8669011984555,25l1005.8669011984555,0m-1005.8669011984555,25l1005.8669011984555,0m-1005.8669011984555,25l1005.8669011984555,0m-1005.8669011984555,25l1005.8669011984555,0m-1005.8669011984555,25l1005.8669011984555,0m-1005.8669011984555,25l1005.8669011984555,0m-1005.8669011984555,25l1005.8669011984555,0m-1005.8669011984555,25l1005.8669011984555,0m-1005.8669011984555,25l1005.8669011984555,0m-1005.8669011984555,25l1005.8669011984555,0m-1005.8669011984555,25l1005.8669011984555,0m-1005.8669011984555,25l1005.8669011984555,0m-1005.8669011984555,25l1005.8669011984555,0m-1005.8669011984555,25l1005.8669011984555,0m-1005.8669011984555,25l1005.8669011984555,0m-1005.8669011984555,25l1005.8669011984555,0m-1005.8669011984555,25l1005.8669011984555,0m-1005.8669011984555,25l1005.8669011984555,0m-1005.8669011984555,25l1005.8669011984555,0m-1005.8669011984555,25l1005.8669011984555,0m-1005.8669011984555,25l1005.8669011984555,0m-988.5169011984555-740.35l0,751.9m25-751.9l0,751.9m25-751.9l0,751.9m25-751.9l0,751.9m25-751.9l0,751.9m25-751.9l0,751.9m25-751.9l0,751.9m25-751.9l0,751.9m25-751.9l0,751.9m25-751.9l0,751.9m25-751.9l0,751.9m25-751.9l0,751.9m25-751.9l0,751.9m25-751.9l0,751.9m25-751.9l0,751.9m25-751.9l0,751.9m25-751.9l0,751.9m25-751.9l0,751.9m25-751.9l0,751.9m25-751.9l0,751.9m25-751.9l0,751.9m25-751.9l0,751.9m25-751.9l0,751.9m25-751.9l0,751.9m25-751.9l0,751.9m25-751.9l0,751.9m25-751.9l0,751.9m25-751.9l0,751.9m25-751.9l0,751.9m25-751.9l0,751.9m25-751.9l0,751.9m25-751.9l0,751.9m25-751.9l0,751.9m25-751.9l0,751.9m25-751.9l0,751.9m25-751.9l0,751.9m25-751.9l0,751.9m25-751.9l0,751.9m25-751.9l0,751.9m25-751.9l0,751.9" fill="none" stroke="#00000033" stroke-width=".7"></path></g><path d="M-207.8,86.2l5.4-5.4l171.1,0l0-327.5l-171.1,0l0,327.5l-5.4,5.4l0-338.3l181.9,0l0,338.3l-181.9,0" fill="#000000"></path><path d="M-9.840579180678333,85.77146518741736L-4.373079180678303,80.30396518741736L168.8656708193217,80.30396518741736L168.8656708193217,-251.28978481258264L-4.373079180678303,-251.28978481258264L-4.373079180678303,80.30396518741736L-9.840579180678333,85.77146518741736L-9.840579180678333,-256.75728481258267L174.3331708193217,-256.75728481258267L174.3331708193217,85.77146518741736L-9.840579180678333,85.77146518741736" fill="#000000"></path><text data-highp-transform="matrix(1.0760445601622048,0,0,1.0760445601622048,-188,-107)" style="transform: matrix(1.07604, 0, 0, 1.07604, -188, -107); font-family: sans-serif; font-size: 24px; fill: rgb(128, 51, 128);">4x 3.7V <tspan x="0" y="24" style="fill: rgb(128, 51, 128);">10000 mAh</tspan><tspan x="0" y="48" style="fill: rgb(128, 51, 128);">LiPo</tspan></text><text data-highp-transform="matrix(1.0760445601622048,0,0,1.0760445601622048,18,-88)" style="transform: matrix(1.07604, 0, 0, 1.07604, 18, -88); font-family: sans-serif; font-size: 24px; fill: rgb(128, 51, 128);">4x 3.7V <tspan x="0" y="24" style="fill: rgb(128, 51, 128);">10000 mAh</tspan><tspan x="0" y="48" style="fill: rgb(128, 51, 128);">LiPo</tspan></text><path d="M-128,-248.6l2-.8q-.5-1.3 -.9-2.9q0-21.7 0-48.7l-2.2,0q0,27 0,49q.5,2 1.1,3.4" fill="#000000"></path><path d="M70.9,-297.9l.2-2.2q-16.2-1.7 -36-3q-74.3,0 -165.1,0l0,2.2q90.8,0 165,0q19.7,1.4 35.9,3  M80.9,-292l2.2,0q-.4-6.7 -12-8.1l-.2,2.2q10.4,.8 10,5.9  M77.9,-253.1l2.2,.2q1.7-17.6 3-39l0-.1l-2.2,0q-1.4,21.4 -3,38.9" fill="#000000"></path><path d="M-242,-431l12-12l385,0l0-210l-385,0l0,210l-12,12l0-234l409,0l0,234l-409,0" fill="#000000"></path><text data-highp-transform="matrix(1,0,0,1,-154,-556)" style="transform: matrix(1, 0, 0, 1, -154, -556); font-family: sans-serif; font-size: 24px; fill: rgb(128, 51, 128);">Rest of the system</text><path d="M-29,-456l-2,0q0,72 0,160l2,0q0-88 0-160" fill="#000000"></path><text data-highp-transform="matrix(1.0760445601622048,0,0,1.0760445601622048,166,-331)" style="transform: matrix(1.07604, 0, 0, 1.07604, 166, -331); font-family: sans-serif; font-size: 24px; fill: rgb(128, 51, 128);">These two packs in parallel to increase capacitance,<tspan x="0" y="24" style="fill: rgb(128, 51, 128);">and each of the squares contain 4 in series </tspan><tspan x="0" y="48" style="fill: rgb(128, 51, 128);">which would reach the 12V requirement drain</tspan></text></svg>